<svg width="32" height="32" viewBox="0 0 32 32" fill="none" xmlns="http://www.w3.org/2000/svg">
<path d="M21.2158 10.2092C21.5583 9.77611 22.1869 9.70276 22.6201 10.0452C23.0532 10.3877 23.1266 11.0163 22.7842 11.4495L14.9453 21.3674L14.9444 21.3665C14.5435 21.8872 13.9181 22.1858 13.2608 22.1663C12.6041 22.1466 11.9971 21.8125 11.628 21.2698L9.18264 17.8001C8.86473 17.3486 8.97254 16.7246 9.42385 16.4065C9.87531 16.0884 10.4993 16.1972 10.8174 16.6487L13.2676 20.1253L13.2793 20.1428L13.2813 20.1448C13.2901 20.1579 13.3046 20.1668 13.3203 20.1672C13.3359 20.1677 13.3508 20.16 13.3604 20.1477L13.3623 20.1458L13.3711 20.134L13.3721 20.1321L21.2158 10.2092Z" fill="currentColor"/>
</svg>
