<svg width="64" height="96" viewBox="0 0 64 96" fill="none" xmlns="http://www.w3.org/2000/svg">
<path d="M31.5 23C32.1895 23 32.8488 23.2849 33.3213 23.7871L59.3213 51.4258C60.2671 52.4315 60.2185 54.014 59.2129 54.96C58.2072 55.9058 56.6246 55.8571 55.6787 54.8516L34 31.8057V88.5C34 89.8807 32.8807 91 31.5 91C30.1193 90.9999 29 89.8807 29 88.5V31.8057L7.32126 54.8516C6.37528 55.8571 4.79274 55.9058 3.78708 54.96C2.78155 54.014 2.7329 52.4314 3.67868 51.4258L29.6787 23.7871C30.1511 23.2849 30.8105 23 31.5 23Z" fill="currentColor"/>
<path d="M31.5 4C32.1793 4 32.8295 4.27636 33.3008 4.76562L59.3008 31.7656C60.2584 32.7601 60.2288 34.343 59.2343 35.3008C58.2398 36.2584 56.6569 36.2288 55.6992 35.2344L31.5 10.1035L7.30075 35.2344C6.34301 36.2287 4.76009 36.2584 3.7656 35.3008C2.77125 34.3431 2.74158 32.7601 3.69919 31.7656L29.6992 4.76562L29.8838 4.59277C30.3332 4.21187 30.9054 4.00002 31.5 4Z" fill="currentColor"/>
</svg>
