<svg width="32" height="32" viewBox="0 0 32 32" fill="none" xmlns="http://www.w3.org/2000/svg">
<path d="M16.25 11C16.6642 11 17 11.3358 17 11.75V15.25H20.25C20.6642 15.25 21 15.5858 21 16C21 16.4142 20.6642 16.75 20.25 16.75H17V20.25C17 20.6642 16.6642 21 16.25 21C15.8358 21 15.5 20.6642 15.5 20.25V16.75H11.75C11.3358 16.75 11 16.4142 11 16C11 15.5858 11.3358 15.25 11.75 15.25H15.5V11.75C15.5 11.3358 15.8358 11 16.25 11Z" fill="currentColor"/>
<path fill-rule="evenodd" clip-rule="evenodd" d="M19.584 4.00098C22.1741 4.00992 23.6006 4.08214 24.7236 4.6543C25.8526 5.22954 26.7705 6.14739 27.3457 7.27637C27.9996 8.55977 28 10.2397 28 13.5996L27.999 19.584C27.9901 22.1741 27.9179 23.6006 27.3457 24.7236C26.7705 25.8526 25.8526 26.7705 24.7236 27.3457C23.6006 27.9179 22.1741 27.9901 19.584 27.999L13.5996 28C10.4494 28 8.7759 27.9999 7.52148 27.4609L7.27637 27.3457C6.21805 26.8065 5.34459 25.9667 4.76562 24.9336L4.6543 24.7236C4.08214 23.6006 4.00992 22.1741 4.00098 19.584L4 13.5996C4 10.4494 4.00014 8.7759 4.53906 7.52148L4.6543 7.27637C5.19353 6.21805 6.03334 5.34459 7.06641 4.76562L7.27637 4.6543C8.55977 4.00042 10.2397 4 13.5996 4L19.584 4.00098ZM13.5996 5.5C11.8949 5.5 10.7064 5.50156 9.78125 5.57715C8.87365 5.65131 8.35203 5.78899 7.95703 5.99023C7.1103 6.42166 6.42166 7.1103 5.99023 7.95703C5.78899 8.35203 5.65131 8.87365 5.57715 9.78125C5.50156 10.7064 5.5 11.8949 5.5 13.5996V18.4004C5.5 20.1051 5.50156 21.2936 5.57715 22.2188C5.65131 23.1263 5.78899 23.648 5.99023 24.043C6.42166 24.8897 7.1103 25.5783 7.95703 26.0098C8.35203 26.211 8.87365 26.3487 9.78125 26.4229C10.7064 26.4984 11.8949 26.5 13.5996 26.5H18.4004C20.1051 26.5 21.2936 26.4984 22.2188 26.4229C23.1263 26.3487 23.648 26.211 24.043 26.0098C24.8897 25.5783 25.5783 24.8897 26.0098 24.043C26.211 23.648 26.3487 23.1264 26.4229 22.2188C26.4984 21.2936 26.5 20.1051 26.5 18.4004V13.5996C26.5 11.8949 26.4984 10.7064 26.4229 9.78125C26.3487 8.87365 26.211 8.35203 26.0098 7.95703C25.5783 7.1103 24.8897 6.42166 24.043 5.99023C23.648 5.78899 23.1264 5.65131 22.2188 5.57715C21.2936 5.50156 20.1051 5.5 18.4004 5.5H13.5996Z" fill="currentColor"/>
</svg>
