<svg width="32" height="32" viewBox="0 0 32 32" fill="none" xmlns="http://www.w3.org/2000/svg">
<path fill-rule="evenodd" clip-rule="evenodd" d="M16 4C22.6274 4 28 9.37258 28 16C28 22.6274 22.6274 28 16 28C9.37258 28 4 22.6274 4 16C4 9.37258 9.37258 4 16 4ZM11.0557 20.5C11.3753 21.7302 11.8172 22.8235 12.3457 23.7295C13.478 25.6705 14.822 26.5 16 26.5C17.178 26.5 18.522 25.6705 19.6543 23.7295C20.1828 22.8235 20.6247 21.7302 20.9443 20.5H11.0557ZM6.51172 20.5C7.60036 22.7913 9.49446 24.624 11.8281 25.6357C10.8041 24.3305 9.99651 22.557 9.51074 20.5H6.51172ZM22.4893 20.5C22.0034 22.5573 21.1951 24.3305 20.1709 25.6357C22.5049 24.6241 24.3995 22.7916 25.4883 20.5H22.4893ZM6 12.7939C5.6762 13.8047 5.5 14.8817 5.5 16C5.5 17.1179 5.67638 18.1946 6 19.2051V19H9.2207C9.07674 18.0411 9 17.0359 9 16C9 14.9641 9.07674 13.9589 9.2207 13H6V12.7939ZM26 13H22.7793C22.9233 13.9589 23 14.9641 23 16C23 17.0359 22.9233 18.0411 22.7793 19H26V19.2051C26.3236 18.1946 26.5 17.1179 26.5 16C26.5 14.8817 26.3238 13.8047 26 12.7939V13ZM10.7402 13C10.5857 13.9462 10.5 14.952 10.5 16C10.5 17.048 10.5857 18.0538 10.7402 19H21.2598C21.4143 18.0538 21.5 17.048 21.5 16C21.5 14.952 21.4143 13.9462 21.2598 13H10.7402ZM11.8281 6.36328C9.4943 7.37501 7.60042 9.20854 6.51172 11.5H9.51074C9.99659 9.44268 10.8039 7.66854 11.8281 6.36328ZM16 5.5C14.822 5.5 13.478 6.32951 12.3457 8.27051C11.8172 9.17651 11.3753 10.2698 11.0557 11.5H20.9443C20.6247 10.2698 20.1828 9.17651 19.6543 8.27051C18.522 6.32951 17.178 5.5 16 5.5ZM20.1709 6.36328C21.1953 7.66858 22.0034 9.44243 22.4893 11.5H25.4883C24.3995 9.20827 22.5051 7.37494 20.1709 6.36328Z" fill="currentColor"/>
</svg>
