<svg width="32" height="32" viewBox="0 0 32 32" fill="none" xmlns="http://www.w3.org/2000/svg">
<path d="M27 15.25C27.4142 15.25 27.75 15.5858 27.75 16C27.75 16.4142 27.4142 16.75 27 16.75H5C4.58579 16.75 4.25 16.4142 4.25 16C4.25 15.5858 4.58579 15.25 5 15.25H27Z" fill="currentColor"/>
<path d="M27 7.25C27.4142 7.25 27.75 7.58579 27.75 8C27.75 8.41421 27.4142 8.75 27 8.75H5C4.58579 8.75 4.25 8.41421 4.25 8C4.25 7.58579 4.58579 7.25 5 7.25H27Z" fill="currentColor"/>
<path d="M27 23.25C27.4142 23.25 27.75 23.5858 27.75 24C27.75 24.4142 27.4142 24.75 27 24.75H5C4.58579 24.75 4.25 24.4142 4.25 24C4.25 23.5858 4.58579 23.25 5 23.25H27Z" fill="currentColor"/>
</svg>
